<?xml version="1.0" standalone="no"?>
<!DOCTYPE svg PUBLIC "-//W3C//DTD SVG 20010904//EN"
 "http://www.w3.org/TR/2001/REC-SVG-20010904/DTD/svg10.dtd">
<svg version="1.0" xmlns="http://www.w3.org/2000/svg"
 width="1152.000000pt" height="1152.000000pt" viewBox="0 0 1152.000000 1152.000000"
 preserveAspectRatio="xMidYMid meet">
<metadata>
Created by potrace 1.11, written by Peter Selinger 2001-2013
</metadata>
<g transform="translate(0.000000,1152.000000) scale(0.100000,-0.100000)"
fill="#000000" stroke="none">
<path d="M6546 10203 c-1 -2 -45 -5 -97 -8 -52 -3 -110 -7 -129 -10 -19 -2
-57 -7 -85 -10 -27 -3 -57 -8 -65 -10 -8 -2 -33 -7 -55 -10 -23 -3 -50 -7 -60
-9 -76 -16 -161 -37 -225 -56 -41 -12 -79 -23 -85 -24 -5 -2 -19 -7 -30 -11
-11 -5 -63 -26 -115 -47 -83 -34 -269 -131 -303 -158 -7 -5 -48 -36 -92 -69
-75 -56 -225 -193 -225 -205 0 -3 -8 -14 -17 -24 -27 -28 -56 -64 -83 -102
-13 -19 -29 -40 -35 -46 -5 -6 -17 -22 -25 -34 -8 -12 -20 -28 -25 -34 -6 -6
-30 -36 -55 -66 -136 -168 -290 -326 -452 -463 -37 -31 -71 -57 -75 -57 -4 0
-21 -14 -37 -30 -16 -17 -35 -30 -42 -30 -7 0 -14 -4 -16 -8 -6 -15 -259 -162
-288 -168 -3 0 -18 -6 -35 -13 -63 -27 -103 -39 -109 -34 -3 4 -6 1 -6 -6 0
-7 -4 -9 -10 -6 -5 3 -16 3 -22 -2 -7 -4 -15 -8 -18 -8 -3 -1 -30 -5 -60 -10
-30 -5 -59 -8 -64 -6 -7 1 -127 -19 -251 -44 -15 -3 -13 1 9 18 55 41 116 112
142 166 44 88 31 216 -28 286 -17 20 -63 66 -83 83 -29 24 -133 80 -139 74 -3
-3 -6 1 -6 8 0 7 -3 10 -7 7 -3 -4 -16 -1 -27 6 -12 7 -41 19 -66 26 -25 8
-64 20 -88 28 -56 17 -271 60 -342 67 -30 3 -89 9 -130 13 -95 10 -484 10
-570 0 -36 -4 -86 -9 -111 -12 -25 -3 -77 -12 -115 -21 -87 -19 -90 -19 -144
-34 -25 -7 -51 -13 -57 -13 -7 0 -13 -3 -13 -7 0 -4 -6 -7 -14 -7 -22 0 -127
-45 -191 -82 -60 -34 -165 -133 -165 -155 0 -6 -7 -24 -16 -41 -16 -31 -22
-107 -12 -162 14 -77 107 -192 195 -242 25 -13 16 -19 -42 -25 -42 -5 -147
-26 -205 -41 -8 -2 -46 -16 -85 -30 -38 -14 -78 -29 -88 -32 -9 -3 -17 -9 -17
-14 0 -5 -4 -8 -8 -6 -27 7 -193 -132 -272 -228 -75 -90 -174 -269 -230 -415
-43 -113 -91 -259 -95 -290 -2 -14 -15 -65 -28 -115 -13 -49 -24 -93 -25 -97
-1 -5 -2 -9 -3 -10 0 -2 -2 -12 -3 -23 -2 -11 -7 -40 -11 -65 -5 -25 -9 -52
-10 -60 -3 -21 -15 -92 -19 -115 -3 -18 -12 -93 -22 -180 -1 -16 -3 -30 -4
-30 -2 0 -4 -27 -15 -160 -14 -163 -15 -206 -20 -470 -4 -247 -7 -356 -21
-840 -2 -88 -6 -255 -8 -371 -2 -117 -7 -217 -10 -223 -4 -6 -2 -11 4 -11 6 0
8 -5 5 -11 -11 -16 -12 -70 -3 -75 5 -3 5 -11 0 -17 -10 -13 -9 -1432 1 -1607
15 -252 29 -389 47 -460 5 -19 11 -46 14 -60 2 -14 16 -56 30 -93 83 -219 223
-403 413 -539 78 -57 206 -127 231 -128 6 0 12 -5 12 -10 0 -6 3 -9 8 -9 4 1
10 0 15 -1 4 -1 12 -4 17 -5 6 -1 12 -4 15 -5 3 -1 8 -3 13 -4 4 -2 33 -10 65
-20 32 -10 61 -15 64 -12 4 3 11 1 18 -4 6 -5 32 -13 56 -16 24 -3 833 -7
1797 -8 1548 -1 1754 1 1762 14 5 8 10 11 10 6 0 -17 52 39 66 71 33 78 -1
174 -74 207 -37 17 -138 18 -1768 20 -951 2 -1745 6 -1764 11 -19 4 -42 9 -50
10 -8 2 -16 4 -17 5 -2 2 -6 3 -10 4 -63 14 -186 67 -217 95 -10 9 -19 14 -20
11 -7 -16 -175 137 -224 205 -20 27 -41 53 -47 57 -6 5 -6 8 0 8 6 0 6 3 0 8
-24 16 -113 238 -100 250 2 3 0 12 -4 21 -8 14 -14 63 -26 206 -14 157 -18
432 -18 1045 0 694 3 907 28 1790 3 107 7 321 10 475 3 154 7 303 9 330 8 114
22 255 31 325 3 25 8 68 11 95 10 88 12 100 14 100 3 0 8 40 12 83 1 12 6 22
11 22 4 0 6 4 2 9 -3 5 0 31 6 58 6 26 13 59 15 73 3 14 8 34 11 45 4 11 7 27
8 35 1 8 8 35 15 60 6 25 14 52 15 60 2 8 15 47 28 87 14 39 23 74 19 77 -3 3
0 6 6 6 7 0 12 6 12 13 0 14 53 139 83 194 10 18 17 36 16 39 0 4 3 10 8 13 4
3 26 33 48 65 87 130 177 198 325 245 115 36 169 43 475 56 66 3 176 8 245 11
162 8 199 8 235 0 286 -61 704 -74 1050 -32 17 2 55 6 86 10 31 4 66 8 77 11
24 4 108 17 137 21 11 1 21 3 23 4 4 4 17 6 77 14 172 21 183 23 305 61 228
72 540 262 769 469 93 85 268 265 354 366 35 41 171 214 202 257 70 96 168
197 265 271 30 23 61 47 68 53 7 5 63 36 125 68 93 49 167 80 307 129 16 6 15
5 80 21 25 7 53 14 63 16 32 9 62 15 97 20 19 3 46 7 60 10 30 7 66 11 250 31
62 7 283 7 350 0 168 -17 174 -17 255 -30 17 -3 41 -8 55 -11 14 -3 41 -8 60
-11 19 -3 53 -12 75 -20 22 -7 49 -14 61 -14 11 0 25 -5 32 -12 7 -7 12 -9 12
-6 0 4 37 -7 83 -23 45 -17 93 -34 107 -39 52 -17 261 -116 350 -167 106 -61
290 -188 298 -205 2 -5 10 -8 18 -8 8 0 14 -4 14 -8 0 -4 22 -25 49 -45 27
-21 128 -115 223 -210 96 -95 196 -190 224 -213 85 -71 277 -198 433 -286 60
-35 244 -125 269 -133 21 -6 19 -9 -32 -61 -61 -60 -119 -138 -109 -148 4 -3
2 -6 -4 -6 -14 0 -54 -128 -62 -198 -6 -50 -1 -124 13 -196 10 -51 78 -225 98
-251 5 -5 21 -29 36 -51 83 -126 223 -228 357 -259 38 -9 287 -15 300 -7 5 3
23 7 40 9 16 2 50 10 75 18 25 8 49 15 54 14 5 0 12 4 15 9 3 5 24 19 47 30
56 28 136 112 172 180 29 54 66 157 76 212 3 14 7 34 9 45 26 116 23 308 -5
343 -30 36 86 -20 169 -82 105 -79 220 -221 283 -351 14 -27 28 -51 33 -53 4
-2 7 -11 7 -21 0 -9 4 -21 9 -27 12 -13 86 -234 104 -314 27 -113 52 -270 63
-395 10 -103 10 -2567 0 -2910 -16 -602 -15 -563 -31 -1210 -3 -126 -7 -291
-9 -366 -2 -75 -6 -140 -9 -145 -3 -6 -2 -16 3 -23 4 -8 5 -25 1 -40 -3 -14
-6 -39 -5 -56 1 -36 -22 -71 -96 -145 -79 -79 -96 -91 -190 -137 -84 -41 -161
-67 -230 -77 -19 -3 -51 -8 -71 -11 -19 -3 -71 -7 -115 -10 -43 -2 -79 -4 -79
-5 0 -2 -140 -8 -317 -14 -69 -2 -131 -7 -136 -10 -6 -3 -13 -2 -16 2 -3 5
-26 6 -52 2 -52 -8 -1604 -5 -1854 4 -604 21 -699 27 -910 57 -41 6 -93 12
-115 14 -67 6 -139 15 -160 19 -11 3 -42 8 -70 11 -27 4 -58 9 -67 11 -10 3
-30 7 -45 10 -16 3 -44 9 -63 14 -19 5 -46 11 -60 14 -45 9 -64 14 -135 37
-38 12 -74 23 -80 25 -5 1 -37 12 -70 25 -33 13 -62 24 -65 24 -45 12 -296
134 -425 208 -84 48 -302 192 -331 218 -11 11 -25 19 -31 19 -6 0 -13 3 -15 8
-1 4 -35 32 -74 62 -158 123 -382 335 -506 480 -67 79 -218 279 -226 300 -3 8
-13 23 -22 33 -9 9 -23 30 -31 45 -8 15 -26 45 -40 67 -62 92 -216 415 -245
510 -2 6 -17 48 -34 95 -34 95 -108 381 -115 444 -2 23 -4 41 -5 41 -1 0 -3
11 -5 25 -2 14 -6 41 -9 60 -31 201 -27 529 8 720 4 19 9 49 12 65 3 17 9 48
15 70 5 22 11 47 13 55 2 8 10 35 17 60 7 25 13 50 15 55 14 62 133 351 184
450 84 159 185 332 220 372 5 7 10 15 10 18 0 3 4 11 10 18 5 7 44 59 86 117
194 265 400 484 580 615 15 11 33 26 41 33 7 7 13 10 13 5 0 -4 4 -3 8 3 28
40 460 284 504 284 8 0 18 4 23 8 13 10 126 54 175 67 3 1 12 5 20 8 21 9 201
58 225 62 21 3 87 15 114 20 15 3 89 12 165 21 39 5 416 4 476 0 109 -9 205
-19 210 -21 3 -2 37 -7 75 -10 39 -4 73 -9 77 -11 4 -3 20 -7 35 -9 152 -22
415 -107 578 -187 302 -148 537 -344 760 -637 27 -36 56 -72 63 -79 6 -7 12
-17 12 -21 0 -4 8 -16 18 -27 29 -30 212 -293 212 -303 0 -5 4 -11 8 -13 11
-4 102 -146 102 -158 0 -6 5 -10 10 -10 6 0 10 -4 10 -10 0 -5 18 -39 40 -75
22 -36 40 -69 40 -74 0 -5 7 -14 15 -21 8 -7 13 -15 11 -19 -2 -3 5 -19 15
-36 40 -67 152 -325 141 -325 -4 0 -2 -4 3 -8 10 -6 60 -154 71 -207 2 -11 7
-31 10 -45 17 -74 25 -114 38 -205 7 -55 14 -109 14 -120 3 -81 2 -307 -1
-313 -3 -4 -8 -36 -11 -72 -4 -36 -9 -72 -11 -80 -2 -8 -7 -33 -10 -55 -7 -44
-13 -70 -15 -70 -1 0 -3 -11 -5 -25 -3 -14 -11 -51 -20 -82 -8 -32 -21 -83
-29 -114 -8 -30 -20 -62 -26 -70 -7 -7 -10 -14 -7 -14 7 0 -29 -113 -48 -150
-8 -16 -15 -31 -14 -32 0 -2 -5 -16 -11 -33 -50 -137 -158 -354 -261 -525 -94
-155 -92 -152 -106 -168 -7 -7 -13 -16 -13 -20 0 -4 -14 -23 -30 -42 -16 -19
-30 -38 -30 -41 0 -9 -157 -207 -228 -289 -78 -90 -369 -380 -381 -380 -6 0
-14 -6 -18 -14 -8 -13 -40 -41 -133 -116 -23 -19 -58 -47 -75 -63 -18 -15 -36
-27 -40 -27 -8 0 -23 -17 -52 -58 -32 -46 -21 -138 24 -187 49 -54 154 -66
208 -23 27 21 96 76 126 100 35 27 44 34 139 116 222 190 460 446 644 692 47
63 89 120 93 125 5 6 28 42 53 80 25 39 48 75 53 80 72 91 282 516 360 730 39
106 40 109 43 122 1 6 13 47 27 90 35 107 87 329 102 433 2 14 7 50 10 80 3
30 8 71 10 90 6 45 6 314 0 360 -2 19 -6 64 -9 100 -3 36 -8 76 -11 90 -7 29
-13 61 -19 93 -10 56 -40 171 -53 207 -3 8 -7 20 -8 25 0 6 -4 17 -7 25 -3 8
-11 33 -17 55 -7 22 -16 49 -21 60 -4 11 -22 54 -38 95 -17 41 -47 111 -67
155 -20 44 -36 82 -35 84 1 2 -2 7 -7 10 -4 3 -17 24 -28 46 -82 167 -316 527
-492 760 -5 6 -35 46 -68 90 -138 186 -304 357 -469 486 -55 43 -106 83 -113
89 -7 5 -15 10 -19 10 -4 0 -28 16 -55 35 -62 44 -257 146 -356 186 -145 58
-344 122 -418 134 -11 1 -38 7 -60 13 -47 12 -210 40 -277 47 -27 3 -69 7 -95
11 -179 20 -591 20 -748 -2 -11 -1 -20 -3 -20 -4 0 -1 -11 -3 -25 -5 -73 -8
-127 -17 -142 -21 -10 -3 -28 -7 -40 -10 -109 -20 -378 -104 -430 -134 -10 -6
-23 -10 -30 -10 -12 0 -320 -149 -328 -159 -3 -3 -25 -17 -50 -30 -64 -34
-279 -181 -363 -249 -103 -81 -335 -316 -404 -409 -15 -21 -30 -40 -33 -43
-13 -12 -120 -150 -165 -215 -28 -38 -53 -74 -57 -80 -10 -12 -87 -131 -107
-166 -90 -150 -212 -386 -260 -504 -34 -83 -62 -154 -63 -165 -1 -3 -14 -43
-30 -90 -16 -47 -30 -94 -33 -105 -2 -11 -17 -81 -34 -155 -45 -205 -55 -303
-55 -555 1 -194 9 -301 34 -440 5 -27 12 -66 14 -85 3 -19 8 -46 11 -60 4 -14
8 -38 11 -55 3 -16 12 -55 21 -85 8 -30 17 -65 19 -76 6 -32 73 -244 89 -279
7 -16 16 -41 20 -55 23 -74 175 -393 230 -480 14 -22 25 -42 25 -44 0 -4 34
-57 119 -186 20 -30 42 -61 49 -69 7 -8 21 -26 30 -40 21 -32 25 -37 102 -131
295 -361 698 -701 1100 -925 47 -27 98 -57 113 -68 16 -10 34 -20 40 -21 7 -1
39 -16 72 -33 58 -29 206 -95 245 -108 3 -1 18 -7 33 -13 67 -28 242 -82 357
-110 126 -31 159 -37 240 -48 25 -4 47 -10 48 -15 2 -5 7 -7 12 -4 5 3 39 1
77 -4 73 -10 144 -19 208 -26 22 -2 60 -7 85 -10 307 -42 863 -59 1935 -59
949 1 1255 9 1545 41 30 3 66 7 80 8 14 2 25 4 25 5 0 1 11 3 25 4 14 2 35 6
47 10 12 4 30 9 41 11 153 29 372 160 501 299 20 22 44 48 54 58 9 10 17 21
17 24 0 3 11 20 24 37 44 59 69 121 71 175 1 29 5 55 8 59 4 3 2 14 -4 24 -5
11 -6 19 -2 19 4 0 8 62 9 138 1 128 8 412 20 842 2 102 7 266 9 365 2 99 7
297 11 440 9 341 10 2827 1 2930 -12 138 -33 285 -57 395 -6 25 -13 56 -16 70
-50 234 -185 533 -324 715 -26 34 -214 219 -239 235 -13 8 -29 20 -35 25 -37
33 -224 124 -306 149 -30 9 -68 21 -85 26 -16 5 -46 11 -65 14 -33 5 -51 9
-110 21 -14 3 -54 8 -90 11 -35 4 -94 18 -130 31 -63 24 -77 28 -130 39 -97
20 -180 42 -230 61 -8 4 -17 7 -20 8 -83 29 -377 172 -400 195 -3 3 -21 14
-40 24 -19 11 -73 44 -118 75 -46 31 -91 61 -100 66 -10 6 -19 12 -22 15 -3 3
-21 18 -40 33 -19 16 -111 104 -205 196 -93 91 -194 187 -224 211 -29 25 -59
50 -65 55 -23 21 -194 144 -251 181 -33 21 -62 41 -65 44 -17 17 -291 156
-390 198 -96 41 -349 128 -392 135 -12 2 -30 6 -38 10 -8 3 -44 11 -80 17 -80
15 -98 18 -130 25 -49 10 -136 20 -260 30 -70 6 -280 12 -284 8z m-4026 -1358
c14 -4 45 -9 70 -11 74 -8 94 -11 110 -17 8 -3 31 -8 50 -11 93 -13 253 -65
313 -101 l39 -23 -29 -19 c-56 -40 -236 -129 -277 -138 -6 -1 -24 -7 -41 -14
-84 -34 -277 -84 -335 -87 -36 -1 -112 -5 -170 -8 -182 -9 -214 -9 -260 4 -25
7 -52 13 -60 15 -33 7 -209 74 -275 106 -77 36 -190 103 -212 125 -8 8 -19 14
-24 14 -35 0 21 43 91 69 19 7 44 17 55 21 46 19 88 29 96 24 5 -3 9 -1 9 4 0
5 6 9 13 9 6 0 50 8 96 17 46 9 113 19 150 22 36 4 68 8 70 10 7 6 495 -4 521
-11z m7473 -609 c6 6 77 -40 112 -72 60 -55 109 -165 99 -219 -2 -11 -6 -41
-9 -66 -3 -25 -10 -60 -15 -78 -5 -17 -7 -31 -5 -31 2 0 -7 -25 -19 -57 -40
-104 -124 -144 -291 -140 -78 2 -97 6 -137 30 -82 48 -144 139 -186 272 -14
46 -11 144 5 184 42 101 155 163 323 177 41 3 77 7 79 9 2 3 11 0 21 -5 10 -5
20 -7 23 -4z"/>
</g>
</svg>
