<svg width="25" height="25" viewBox="0 0 25 25" fill="none" xmlns="http://www.w3.org/2000/svg">
<path d="M12.0977 17.9305C12.6281 17.9305 13.1368 17.7198 13.5119 17.3447C13.8869 16.9696 14.0977 16.4609 14.0977 15.9305C14.0977 14.8205 13.1977 13.9305 12.0977 13.9305C11.5672 13.9305 11.0585 14.1412 10.6834 14.5163C10.3084 14.8913 10.0977 15.4 10.0977 15.9305C10.0977 16.4609 10.3084 16.9696 10.6834 17.3447C11.0585 17.7198 11.5672 17.9305 12.0977 17.9305ZM18.0977 8.93048C18.6281 8.93048 19.1368 9.1412 19.5119 9.51627C19.8869 9.89134 20.0977 10.4 20.0977 10.9305V20.9305C20.0977 21.4609 19.8869 21.9696 19.5119 22.3447C19.1368 22.7198 18.6281 22.9305 18.0977 22.9305H6.09766C5.56722 22.9305 5.05852 22.7198 4.68344 22.3447C4.30837 21.9696 4.09766 21.4609 4.09766 20.9305V10.9305C4.09766 9.82048 4.99766 8.93048 6.09766 8.93048H7.09766V6.93048C7.09766 5.6044 7.62444 4.33263 8.56212 3.39495C9.4998 2.45727 10.7716 1.93048 12.0977 1.93048C12.7543 1.93048 13.4044 2.05981 14.0111 2.31108C14.6177 2.56236 15.1689 2.93065 15.6332 3.39495C16.0975 3.85924 16.4658 4.41044 16.7171 5.01706C16.9683 5.62369 17.0977 6.27387 17.0977 6.93048V8.93048H18.0977ZM12.0977 3.93048C11.302 3.93048 10.5389 4.24655 9.97634 4.80916C9.41373 5.37177 9.09766 6.13483 9.09766 6.93048V8.93048H15.0977V6.93048C15.0977 6.13483 14.7816 5.37177 14.219 4.80916C13.6564 4.24655 12.8933 3.93048 12.0977 3.93048Z" fill="#454036"/>
</svg>
